<svg width="59" height="44" viewBox="0 0 59 44" fill="none" xmlns="http://www.w3.org/2000/svg">
<path d="M44.8346 0H28.9635C27.9765 0 27.1793 0.799641 27.1793 1.78428V5.4064H23.9564V0.410774C23.9564 0.231859 23.8121 0.0894571 23.635 0.0894571H11.8784C11.6995 0.0894571 11.5528 0.231859 11.5528 0.410774V5.40579H9.41008V3.21804C9.41008 3.03973 9.26342 2.89489 9.08694 2.89489H2.43361C2.25895 2.89489 2.11047 3.03973 2.11047 3.21804V5.40579H1.79037C0.803292 5.40579 0 6.20908 0 7.19616V39.6723C0 40.6587 0.803292 41.459 1.79037 41.459H25.3159C27.7495 42.5617 30.4454 43.1861 33.291 43.1861C36.1421 43.1861 38.8386 42.5617 41.2722 41.459H56.553C57.5358 41.459 58.3379 40.6594 58.3379 39.6723V7.19616C58.3385 6.20969 58.3385 0.10954 44.8346 0ZM33.2879 38.6286C25.0511 38.6286 18.3528 31.9278 18.3528 23.6953C18.3528 15.4615 25.0511 8.76501 33.2879 8.76501C41.5162 8.76501 48.22 15.4609 48.22 23.6953C48.22 31.9284 41.5156 38.6286 33.2879 38.6286ZM52.1616 10.6065H44.6916V4.88304H52.161L52.1616 10.6065Z" fill="#246692"/>
<path d="M43 16H29C28.7348 16 28.4804 16.1054 28.2929 16.2929C28.1054 16.4804 28 16.7348 28 17V20H33V18H39V28H43C43.2652 28 43.5196 27.8946 43.7071 27.7071C43.8946 27.5196 44 27.2652 44 27V17C44 16.7348 43.8946 16.4804 43.7071 16.2929C43.5196 16.1054 43.2652 16 43 16ZM31.25 19.2188C31.25 19.2933 31.2204 19.3649 31.1676 19.4176C31.1149 19.4704 31.0433 19.5 30.9687 19.5H30.0312C29.9567 19.5 29.8851 19.4704 29.8324 19.4176C29.7796 19.3649 29.75 19.2933 29.75 19.2188V18.2813C29.75 18.2067 29.7796 18.1351 29.8324 18.0824C29.8851 18.0296 29.9567 18 30.0312 18H30.9687C31.0433 18 31.1149 18.0296 31.1676 18.0824C31.2204 18.1351 31.25 18.2067 31.25 18.2813V19.2188ZM42.25 25.7188C42.25 25.7933 42.2204 25.8649 42.1676 25.9176C42.1149 25.9704 42.0433 26 41.9688 26H41.0313C40.9567 26 40.8851 25.9704 40.8324 25.9176C40.7796 25.8649 40.75 25.7933 40.75 25.7188V24.7813C40.75 24.7067 40.7796 24.6351 40.8324 24.5824C40.8851 24.5296 40.9567 24.5 41.0313 24.5H41.9688C42.0433 24.5 42.1149 24.5296 42.1676 24.5824C42.2204 24.6351 42.25 24.7067 42.25 24.7813V25.7188ZM42.25 22.4688C42.25 22.5433 42.2204 22.6149 42.1676 22.6676C42.1149 22.7204 42.0433 22.75 41.9688 22.75H41.0313C40.9567 22.75 40.8851 22.7204 40.8324 22.6676C40.7796 22.6149 40.75 22.5433 40.75 22.4688V21.5313C40.75 21.4567 40.7796 21.3851 40.8324 21.3324C40.8851 21.2796 40.9567 21.25 41.0313 21.25H41.9688C42.0433 21.25 42.1149 21.2796 42.1676 21.3324C42.2204 21.3851 42.25 21.4567 42.25 21.5313V22.4688ZM42.25 19.2188C42.25 19.2933 42.2204 19.3649 42.1676 19.4176C42.1149 19.4704 42.0433 19.5 41.9688 19.5H41.0313C40.9567 19.5 40.8851 19.4704 40.8324 19.4176C40.7796 19.3649 40.75 19.2933 40.75 19.2188V18.2813C40.75 18.2067 40.7796 18.1351 40.8324 18.0824C40.8851 18.0296 40.9567 18 41.0313 18H41.9688C42.0433 18 42.1149 18.0296 42.1676 18.0824C42.2204 18.1351 42.25 18.2067 42.25 18.2813V19.2188ZM37 21H25C24.7348 21 24.4804 21.1054 24.2929 21.2929C24.1054 21.4804 24 21.7348 24 22V31C24 31.2652 24.1054 31.5196 24.2929 31.7071C24.4804 31.8946 24.7348 32 25 32H37C37.2652 32 37.5196 31.8946 37.7071 31.7071C37.8946 31.5196 38 31.2652 38 31V22C38 21.7348 37.8946 21.4804 37.7071 21.2929C37.5196 21.1054 37.2652 21 37 21ZM27 23C27.1978 23 27.3911 23.0586 27.5556 23.1685C27.72 23.2784 27.8482 23.4346 27.9239 23.6173C27.9996 23.8 28.0194 24.0011 27.9808 24.1951C27.9422 24.3891 27.847 24.5673 27.7071 24.7071C27.5673 24.847 27.3891 24.9422 27.1951 24.9808C27.0011 25.0194 26.8 24.9996 26.6173 24.9239C26.4346 24.8482 26.2784 24.72 26.1685 24.5556C26.0586 24.3911 26 24.1978 26 24C26 23.7348 26.1054 23.4804 26.2929 23.2929C26.4804 23.1054 26.7348 23 27 23ZM36 30H26V29L28 27L29 28L33 24L36 27V30Z" fill="#246692"/>
<path d="M48.4996 6.39844C48.4996 6.25781 48.5254 6.12422 48.5723 6.00234C48.5488 6.00234 48.5254 6 48.4996 6C47.6348 6 46.9387 6.73594 47.0043 7.61484C47.0605 8.34844 47.6512 8.93906 48.3848 8.99531C49.2637 9.06094 49.9996 8.36484 49.9996 7.5C49.9996 7.46953 49.9973 7.43906 49.9973 7.40859C49.866 7.46719 49.723 7.5 49.5707 7.5C48.9801 7.5 48.4996 7.00547 48.4996 6.39844Z" fill="#246692"/>
<path d="M48.5 8.60117C48.5 8.74179 48.4742 8.87538 48.4273 8.99726C48.4508 8.99726 48.4742 8.9996 48.5 8.9996C49.3648 8.9996 50.0609 8.26367 49.9953 7.38476C49.9391 6.65117 49.3484 6.06054 48.6148 6.00429C47.7359 5.93867 47 6.63476 47 7.4996C47 7.53007 47.0023 7.56054 47.0023 7.59101C47.1336 7.53242 47.2766 7.4996 47.4289 7.4996C48.0195 7.4996 48.5 7.99413 48.5 8.60117Z" fill="#246692"/>
</svg>
