<svg width="401" height="401" viewBox="0 0 401 401" fill="none" xmlns="http://www.w3.org/2000/svg">
<path d="M368.806 284.319L200.33 368.556L31.8547 284.319V115.843L200.331 31.6038L368.806 115.843V284.319ZM400.331 300.079V100.081L200.331 0.0800781L0.330692 100.08V300.079L200.331 400.08L400.331 300.079Z" fill="#6CA3EB"/>
<path d="M330.614 200.276C329.017 199.067 326.899 198.521 324.805 198.782C319.185 199.483 314.313 199.888 309.912 200.021L308.168 200.072C306.085 200.132 303.971 200.192 301.845 200.291C301.896 198.522 301.959 196.792 302.018 195.159C302.164 191.152 302.383 187.125 302.614 183.008C302.729 180.956 302.888 178.844 303.041 176.801C303.189 174.834 303.342 172.8 303.461 170.769C303.616 168.117 303.717 165.422 303.814 162.815C303.869 161.342 303.924 159.866 303.989 158.39C304.141 154.955 301.147 152.035 297.222 151.791C295.231 151.667 293.186 151.485 291.208 151.308C288.213 151.041 285.116 150.765 281.978 150.664C276.006 150.472 270.52 150.863 265.204 151.858C264.824 151.929 264.452 152.027 264.089 152.15C260.124 153.497 259.119 156.184 258.788 157.066L258.748 157.174C258.586 157.53 258.462 157.898 258.376 158.273C257.371 162.663 256.547 166.328 255.871 170.183C255.654 171.417 255.408 172.642 255.147 173.939C254.601 176.646 254.037 179.446 253.763 182.36C253.456 185.61 253.539 188.755 253.62 191.798C253.647 192.804 253.673 193.81 253.685 194.82C253.701 196.231 253.75 197.663 253.826 199.098C251.12 198.851 248.553 198.737 246.301 198.668C241.124 198.51 236.45 198.331 231.671 197.735C228.343 197.322 225.121 198.946 223.871 201.673C222.621 204.398 223.666 207.518 226.402 209.225C227.874 210.143 229.128 211.779 230.581 213.671C232.328 215.948 234.281 218.495 237.253 220.627C239.727 223.776 242.378 226.692 244.951 229.518L245.882 230.542C248.442 233.359 251.089 236.271 253.814 239.1C254.585 239.898 255.357 240.694 256.13 241.489C258.231 243.652 260.403 245.887 262.427 248.112L263.043 248.788C265.245 251.206 267.343 253.51 269.264 255.903C269.832 257.129 271.102 258.801 273.909 259.672C274.708 259.92 275.532 260.04 276.348 260.04C278.551 260.04 280.691 259.164 282.101 257.585C282.326 257.332 282.525 257.07 282.7 256.799C283.526 256.135 284.357 255.474 285.174 254.826C287.109 253.29 289.11 251.701 291.053 250.044C293.269 248.156 295.426 246.216 297.512 244.341C298.556 243.402 299.6 242.463 300.651 241.531C301.764 240.545 302.89 239.568 304.019 238.589C306.079 236.801 308.212 234.952 310.294 233.017C311.381 232.008 312.485 231.007 313.593 230.003C315.579 228.203 317.631 226.342 319.642 224.383C320.41 223.666 320.928 222.903 321.287 222.215C322.091 221.65 322.79 220.938 323.379 220.078C323.476 219.939 323.565 219.797 323.648 219.651C323.778 219.423 323.952 219.272 324.812 218.644C325.822 217.905 327.205 216.893 328.413 215.309C329.494 213.892 330.112 212.665 330.609 211.679C330.972 210.958 331.212 210.48 331.59 209.986C332.174 209.221 332.558 208.358 332.724 207.458C332.913 206.92 333.127 206.106 333.127 205.088C333.128 203.242 332.21 201.485 330.614 200.276ZM310.485 212.938C309.062 214.181 308.434 215.599 308.107 216.533C306.472 218.101 304.757 219.654 303.093 221.164C301.943 222.206 300.799 223.244 299.672 224.29C297.76 226.066 295.718 227.837 293.743 229.551C292.577 230.562 291.415 231.571 290.264 232.59C289.187 233.545 288.12 234.505 287.053 235.465C284.941 237.363 282.947 239.157 280.869 240.927C279.687 241.935 278.477 242.919 277.226 243.92C276.3 242.883 275.374 241.863 274.457 240.857L273.846 240.186C271.676 237.801 269.426 235.485 267.25 233.245C266.49 232.462 265.729 231.68 264.972 230.895C262.381 228.206 259.8 225.367 257.305 222.622L256.369 221.592C253.623 218.575 251.03 215.724 248.703 212.676C248.36 212.228 247.956 211.819 247.497 211.461C251.464 211.622 255.86 211.971 259.867 212.971C262.216 213.558 264.744 213.078 266.601 211.694C268.46 210.31 269.402 208.205 269.111 206.087C268.606 202.409 268.314 198.467 268.27 194.689C268.257 193.627 268.229 192.565 268.201 191.503C268.125 188.666 268.055 185.987 268.298 183.407C268.518 181.077 269 178.682 269.512 176.148C269.775 174.839 270.048 173.486 270.288 172.114C270.764 169.398 271.333 166.723 272 163.752C274.989 163.406 278.107 163.289 281.442 163.397C283.939 163.477 286.492 163.695 289.181 163.935C289.103 165.997 289.015 168.09 288.896 170.12C288.783 172.058 288.634 174.046 288.489 175.967C288.331 178.062 288.169 180.227 288.047 182.385C287.814 186.56 287.591 190.647 287.441 194.755C287.303 198.612 287.145 202.983 287.145 207.276C287.145 209.122 288.062 210.878 289.659 212.088C291.255 213.297 293.373 213.843 295.468 213.582C299.614 213.064 304.001 212.939 308.647 212.806L310.414 212.754C310.515 212.751 310.616 212.748 310.717 212.744C310.638 212.807 310.562 212.872 310.485 212.938Z" fill="#6CA3EB"/>
<path d="M213.197 148.166C209.406 147.555 205.573 147.378 202.191 147.221L200.524 147.142C195.883 146.911 192.059 146.817 188.485 146.835C186.044 146.851 183.563 146.845 181.063 146.838C179.68 146.835 178.291 146.831 176.9 146.831C174.75 146.831 172.707 147.639 171.307 149.042C166.275 154.09 162.021 158.098 158.301 161.295C157.741 161.776 157.276 162.332 156.921 162.941C156.654 163.401 156.232 164.026 155.826 164.631C155.57 165.011 155.311 165.396 155.057 165.786C153.29 167.143 151.864 168.55 150.577 169.818C149.241 171.134 148.088 172.271 146.762 173.183C146.55 173.328 146.347 173.485 146.155 173.649C145.528 174.189 144.951 174.744 144.412 175.295C143.652 174.498 142.89 173.63 142.089 172.719C141.159 171.661 140.197 170.567 139.146 169.482C137.812 168.105 136.458 166.806 135.148 165.55C133.95 164.401 132.818 163.315 131.745 162.215L130.849 161.298C128.734 159.134 126.736 157.09 124.869 154.978C123.487 153.414 122.224 151.587 120.887 149.653C120.339 148.859 119.791 148.066 119.231 147.284C118.083 145.682 116.166 144.602 114 144.335C108.543 143.665 102.795 143.37 96.922 143.456C91.2472 143.54 85.6291 143.86 80.7955 144.157C78.2019 144.264 75.4853 145.421 74.0541 147.786C73.0155 148.815 72.3754 150.119 72.2671 151.516C72.1043 153.624 72.0955 155.685 72.0867 157.677C72.0793 159.34 72.0727 160.91 71.9798 162.434C71.8848 164.003 71.7066 165.591 71.5187 167.271C71.3029 169.199 71.0797 171.192 70.9781 173.243C70.8786 175.24 70.8138 177.248 70.7519 179.191C70.7004 180.809 70.6488 182.428 70.5766 184.046C70.4941 185.897 70.4588 187.746 70.4241 189.535C70.3895 191.359 70.3564 193.082 70.2776 194.821C70.187 196.839 70.0676 198.856 69.949 200.876C69.857 202.436 69.7649 203.997 69.6853 205.559C69.5984 207.253 69.3951 208.983 69.18 210.816C68.9745 212.57 68.7616 214.383 68.6452 216.246C68.5244 218.166 68.5561 220.02 68.5863 221.812C68.6173 223.621 68.6467 225.33 68.5178 226.952C68.3624 228.914 68.1193 230.877 67.8622 232.955C67.6766 234.455 67.4844 236.007 67.3267 237.568C67.3083 237.751 67.2987 237.933 67.2987 238.116L67.2995 238.592C67.3046 240.655 67.2803 241.776 66.705 242.766C65.6023 244.662 65.6767 246.906 66.9024 248.746C68.1289 250.585 70.3439 251.775 72.8041 251.916C77.2178 252.169 81.2404 252.05 84.5956 251.901C87.9678 251.75 91.4785 251.734 95.0311 251.854C97.7698 251.946 100.97 252.155 103.942 253.006C106.23 253.663 108.747 253.313 110.68 252.072C112.613 250.831 113.716 248.854 113.633 246.781C113.509 243.663 113.479 240.206 113.542 235.904C113.578 233.425 113.719 230.954 113.867 228.338C113.931 227.209 113.995 226.08 114.051 224.948C114.145 223.023 114.119 221.146 114.093 219.331C114.066 217.418 114.041 215.612 114.153 213.867C114.259 212.244 114.508 210.567 114.772 208.79C114.933 207.705 115.098 206.599 115.234 205.469C116.982 207.421 118.552 209.239 120.031 211.023C122.822 214.39 125.065 217.554 126.891 220.694C127.066 220.995 127.269 221.283 127.496 221.555C128.088 222.263 128.779 222.851 129.565 223.315C131.021 225.474 132.158 227.37 133.249 229.716C134.56 232.534 138.016 234.156 141.481 233.582C144.839 233.026 147.296 230.561 147.447 227.649C149.492 224.772 151.229 222.541 152.989 220.527C153.514 219.926 154.034 219.323 154.552 218.721C156.44 216.531 158.224 214.462 160.153 212.632C161.608 211.251 163.125 209.903 164.782 208.486C164.709 210.277 164.672 212.077 164.67 213.875C164.535 215.975 164.432 218.056 164.328 220.122C164.248 221.729 164.169 223.328 164.074 224.921C163.982 226.483 163.811 228.058 163.629 229.725C163.4 231.815 163.165 233.976 163.083 236.211C162.972 239.215 162.981 242.242 162.99 245.17L162.994 247.593C162.994 250.767 165.727 253.45 169.387 253.87C173.043 254.289 176.945 254.716 180.909 254.918C184.485 255.101 188.041 255.146 191.48 255.189L192.306 255.199C194.196 255.222 196.07 255.201 197.896 255.173C199.166 255.997 200.722 256.452 202.335 256.452C204.536 256.452 207.212 255.616 208.912 253.377C209.207 253.105 209.476 252.809 209.714 252.493C210.558 251.372 211.389 249.516 210.566 247.038C210.42 246.599 210.223 246.182 209.98 245.792C210.004 245.217 210.025 244.646 210.046 244.082C210.117 242.193 210.183 240.408 210.332 238.628C210.485 236.793 210.708 234.962 210.944 233.024C211.195 230.958 211.454 228.82 211.626 226.653C211.798 224.482 211.82 222.36 211.841 220.308C211.86 218.335 211.879 216.471 212.026 214.654C212.183 212.699 212.423 210.748 212.68 208.682C212.918 206.752 213.165 204.756 213.34 202.736L213.554 200.236C213.817 197.147 214.09 193.953 214.395 190.832C214.61 188.632 214.901 186.456 215.208 184.152C215.433 182.469 215.665 180.728 215.864 178.986C216.214 175.915 216.646 172.771 217.063 169.73L217.421 167.109C217.953 163.184 218.504 159.126 219.132 155.264C219.68 151.918 217.065 148.79 213.197 148.166ZM202.789 165.646L202.434 168.25C202.008 171.352 201.567 174.56 201.204 177.755C201.018 179.391 200.792 181.078 200.575 182.71C200.267 185.008 199.95 187.384 199.716 189.777C199.406 192.965 199.13 196.192 198.864 199.312L198.65 201.801C198.494 203.619 198.269 205.429 198.032 207.346C197.773 209.436 197.506 211.596 197.33 213.784C197.154 215.982 197.132 218.127 197.111 220.202C197.092 222.155 197.073 224 196.931 225.795C196.777 227.734 196.542 229.664 196.293 231.71C196.056 233.663 195.811 235.682 195.64 237.723C195.503 239.358 195.429 240.969 195.367 242.542C194.411 242.549 193.466 242.55 192.525 242.539L191.696 242.528C188.269 242.485 185.032 242.445 181.786 242.278C180.443 242.21 179.082 242.108 177.72 241.988C177.724 240.168 177.744 238.39 177.81 236.613C177.878 234.77 178.082 232.896 178.299 230.911C178.487 229.184 178.683 227.397 178.79 225.565C178.886 223.94 178.968 222.308 179.049 220.668C179.153 218.597 179.257 216.512 179.393 214.406C179.4 214.289 179.405 214.172 179.405 214.055C179.405 210.775 179.532 207.489 179.784 204.286C180.012 201.376 180.314 198.31 181.253 195.619C181.922 193.702 181.497 191.625 180.107 190.019C178.759 188.462 176.658 187.525 174.409 187.469C173.527 187.39 171.078 187.208 168.435 188.83C168.229 188.957 168.031 189.092 167.841 189.236C166.663 190.129 165.444 190.986 164.152 191.893C162.206 193.26 160.195 194.674 158.256 196.275C154.831 199.103 151.987 201.522 149.238 204.13C146.823 206.423 144.737 208.842 142.719 211.182C142.22 211.762 141.721 212.342 141.214 212.921C140.859 213.328 140.506 213.739 140.153 214.16C139.804 213.841 139.43 213.554 139.031 213.301C137.073 210.146 134.77 206.98 132.032 203.675C129.435 200.541 126.6 197.336 123.11 193.585C122.941 193.403 122.759 193.229 122.567 193.063C122.045 192.614 121.544 192.164 121.049 191.72C118.487 189.42 115.582 186.811 111.118 185.276C108.891 184.511 106.369 184.724 104.358 185.852C102.349 186.978 101.103 188.876 101.02 190.937C100.952 192.64 100.941 194.352 100.93 196.009C100.916 198.12 100.903 200.115 100.781 202.068C100.68 203.696 100.428 205.39 100.162 207.184C99.8757 209.103 99.5811 211.088 99.447 213.163C99.3063 215.336 99.3358 217.445 99.3645 219.484C99.3888 221.206 99.4117 222.832 99.3343 224.414C99.2806 225.517 99.2179 226.618 99.1553 227.72C99.0073 230.333 98.8533 233.037 98.8143 235.745C98.7959 237.013 98.7848 238.212 98.7819 239.355C97.6792 239.279 96.6185 239.232 95.6101 239.198C91.6133 239.063 87.6511 239.08 83.8333 239.252C83.2543 239.277 82.654 239.303 82.0345 239.324C82.0352 239.066 82.0345 238.812 82.0345 238.564V238.389C82.1744 237.043 82.3402 235.706 82.5147 234.295C82.7755 232.191 83.0444 230.014 83.2189 227.813C83.3891 225.667 83.3545 223.612 83.3206 221.626C83.2926 219.974 83.2661 218.415 83.3596 216.926C83.4576 215.357 83.6439 213.769 83.8414 212.086C84.0675 210.159 84.301 208.167 84.4063 206.113C84.4844 204.58 84.575 203.047 84.6656 201.517C84.7879 199.446 84.9094 197.377 85.003 195.311C85.0877 193.431 85.1238 191.556 85.1584 189.743C85.1923 187.943 85.2254 186.242 85.3013 184.531C85.3757 182.867 85.4287 181.202 85.4818 179.538C85.5422 177.644 85.6048 175.685 85.6998 173.786C85.7853 172.071 85.9805 170.329 86.1867 168.484C86.3819 166.742 86.583 164.94 86.695 163.095C86.8062 161.264 86.8143 159.464 86.8209 157.724C86.8224 157.311 86.8246 156.904 86.8275 156.501C90.154 156.322 93.6816 156.171 97.1768 156.12C101.051 156.064 104.842 156.196 108.495 156.515C109.899 158.546 111.365 160.632 113.141 162.642C115.227 165 117.436 167.26 119.572 169.446L120.459 170.353C121.687 171.613 122.954 172.828 124.178 174.003C125.457 175.229 126.665 176.388 127.829 177.589C128.656 178.443 129.472 179.371 130.336 180.354C133.215 183.628 136.477 187.341 141.63 189.872C144.515 191.289 148.145 190.872 150.494 188.852C151.943 187.606 153.128 186.274 154.174 185.099C154.934 184.246 155.656 183.436 156.347 182.805C158.518 181.259 160.193 179.608 161.681 178.142C163.017 176.825 164.17 175.689 165.496 174.777C166.328 174.204 167.006 173.484 167.483 172.664C167.75 172.204 168.171 171.579 168.578 170.975C168.888 170.513 169.206 170.042 169.51 169.566C172.754 166.741 176.233 163.486 180.269 159.499C180.52 159.5 180.772 159.501 181.023 159.501C183.571 159.508 186.102 159.514 188.594 159.499C191.84 159.478 195.359 159.569 199.673 159.784L201.402 159.866C202.122 159.9 202.848 159.932 203.573 159.971C203.301 161.876 203.043 163.776 202.789 165.646Z" fill="#6CA3EB"/>
</svg>
