<?xml version="1.0" ?><!DOCTYPE svg  PUBLIC '-//W3C//DTD SVG 1.1//EN'  'http://www.w3.org/Graphics/SVG/1.1/DTD/svg11.dtd'><svg id="Layer_1" style="enable-background:new 0 0 64 64;" version="1.1" viewBox="0 0 64 64" xml:space="preserve" xmlns="http://www.w3.org/2000/svg" xmlns:xlink="http://www.w3.org/1999/xlink"><style type="text/css">
	.st0{fill:#134563;}
</style><g><g id="Icon-Link" transform="translate(30.000000, 380.000000)"><path class="st0" d="M0.5-339.7c0.1,0.4,0.1,0.8,0.1,1.2c0,2.2-0.8,4.2-2.4,5.7l-3.2,3.2c-1.5,1.5-3.6,2.4-5.7,2.4     c-4.5,0-8.1-3.6-8.1-8.1c0-2.2,0.8-4.2,2.4-5.7l3.2-3.2c1.5-1.5,3.6-2.4,5.8-2.4c0.4,0,0.8,0.1,1.2,0.1l2.5-2.5     c-1.2-0.4-2.4-0.6-3.7-0.6c-3,0-5.8,1.2-7.9,3.3l-3.2,3.2c-2.1,2.1-3.3,4.9-3.3,7.9c0,6.1,5,11.1,11.1,11.1c3,0,5.8-1.2,7.9-3.3     l3.2-3.2c2.1-2.1,3.3-4.9,3.3-7.9c0-1.3-0.2-2.5-0.6-3.7L0.5-339.7" id="Fill-177"/><path class="st0" d="M14.9-372c-3,0-5.8,1.2-7.9,3.3l-3.2,3.2c-2.1,2.1-3.3,4.9-3.3,7.9c0,1.3,0.2,2.5,0.6,3.7     l2.5-2.5c-0.1-0.4-0.1-0.8-0.1-1.2c0-2.2,0.8-4.2,2.4-5.7l3.2-3.2c1.5-1.5,3.6-2.4,5.8-2.4c4.5,0,8.1,3.6,8.1,8.1     c0,2.2-0.8,4.2-2.4,5.7l-3.2,3.2c-1.5,1.5-3.6,2.4-5.7,2.4c-0.4,0-0.8-0.1-1.2-0.1L8-347.2c1.2,0.4,2.4,0.6,3.7,0.6     c3,0,5.8-1.2,7.9-3.3l3.2-3.2c2.1-2.1,3.3-4.9,3.3-7.9C26-367,21-372,14.9-372" id="Fill-178"/><path class="st0" d="M-5.9-338.5c-0.4,0-0.8-0.2-1.1-0.5c-0.6-0.6-0.6-1.6,0-2.3l16-16c0.6-0.6,1.6-0.6,2.3,0     c0.6,0.6,0.6,1.6,0,2.3l-16,16C-5.1-338.6-5.5-338.5-5.9-338.5" id="Fill-179"/></g></g></svg>