<svg width="2125" height="658" viewBox="0 0 2125 658" fill="none" xmlns="http://www.w3.org/2000/svg">
<g filter="url(#filter0_d)">
<rect width="2093" height="626" transform="translate(16 16)" fill="white"/>
</g>
<path d="M360.983 196.99H298.522L208.3 431.156H264.849L279.501 391.314H364.839L349.416 347.617H293.124L329.624 246.856L394.656 431.156H451.205L360.983 196.99ZM1310.24 431.156V196.99H1360.37V387.202H1459.33V431.156H1310.24ZM1599.42 431.156V196.99H1649.8V387.202H1748.76V431.156H1599.42ZM1032.12 238.888C1073.76 238.888 1107.44 272.561 1107.44 314.202C1107.44 355.842 1073.76 389.515 1032.12 389.515C990.482 389.515 956.809 355.842 956.809 314.202C956.809 272.561 990.739 238.888 1032.12 238.888V238.888ZM1032.12 193.134C965.291 193.134 911.055 247.37 911.055 314.202C911.055 381.033 965.291 435.269 1032.12 435.269C1098.95 435.269 1153.19 381.033 1153.19 314.202C1153.19 247.37 1098.95 193.134 1032.12 193.134V193.134ZM1979.58 238.888C2021.22 238.888 2054.9 272.561 2054.9 314.202C2054.9 355.842 2021.22 389.515 1979.58 389.515C1937.94 389.515 1904.27 355.842 1904.27 314.202C1904.27 272.561 1937.94 238.888 1979.58 238.888ZM1979.58 193.134C1912.75 193.134 1858.52 247.37 1858.52 314.202C1858.52 381.033 1912.75 435.269 1979.58 435.269C2046.41 435.269 2100.65 381.033 2100.65 314.202C2100.65 247.37 2046.41 193.134 1979.58 193.134ZM706.449 196.99H597.206V431.156H647.072V350.445H706.449C748.09 350.445 781.763 315.23 781.763 273.589C781.763 232.205 748.09 196.99 706.449 196.99V196.99ZM706.449 304.691H647.072V242.744H706.449C722.643 242.744 736.009 257.395 736.009 273.589C736.009 289.782 722.643 304.691 706.449 304.691V304.691Z" fill="#333333"/>
<path d="M554.28 502.1C549.91 502.1 546.054 504.156 543.741 507.498C543.741 507.498 532.431 520.35 526.519 526.519C500.815 552.223 470.998 572.273 437.839 586.41C403.395 601.061 366.895 608.259 329.11 608.259C291.325 608.259 254.825 600.804 220.381 586.41C187.222 572.273 157.148 552.223 131.701 526.519C105.997 500.815 85.9474 470.998 71.81 437.839C57.1585 403.395 49.9613 366.895 49.9613 329.11C49.9613 291.325 57.4156 254.825 71.81 220.381C85.6903 187.222 105.74 157.148 131.444 131.701C157.148 105.997 186.965 85.9474 220.124 71.81C254.568 57.1585 291.068 49.9613 328.853 49.9613C366.638 49.9613 403.138 57.4156 437.582 71.81C461.744 82.0917 484.107 95.458 504.413 111.909C503.385 114.993 502.614 118.592 502.614 122.19C502.614 139.669 516.751 153.807 534.23 153.807C551.709 153.807 565.847 139.669 565.847 122.19C565.847 104.711 551.709 90.5741 534.23 90.5741C529.861 90.5741 525.748 91.3453 522.149 93.1446C469.455 49.9613 402.367 24 328.853 24C160.49 24 24 160.49 24 329.11C24 497.73 160.49 634.22 329.11 634.22C423.445 634.22 507.498 591.551 563.533 524.206C565.847 521.892 567.389 518.551 567.389 515.209C567.132 508.012 561.22 502.1 554.28 502.1Z" fill="#333333"/>
<defs>
<filter id="filter0_d" x="0" y="0" width="2125" height="658" filterUnits="userSpaceOnUse" color-interpolation-filters="sRGB">
<feFlood flood-opacity="0" result="BackgroundImageFix"/>
<feColorMatrix in="SourceAlpha" type="matrix" values="0 0 0 0 0 0 0 0 0 0 0 0 0 0 0 0 0 0 127 0"/>
<feOffset/>
<feGaussianBlur stdDeviation="8"/>
<feColorMatrix type="matrix" values="0 0 0 0 0 0 0 0 0 0 0 0 0 0 0 0 0 0 0.25 0"/>
<feBlend mode="normal" in2="BackgroundImageFix" result="effect1_dropShadow"/>
<feBlend mode="normal" in="SourceGraphic" in2="effect1_dropShadow" result="shape"/>
</filter>
</defs>
</svg>
