<svg width="223" height="435" viewBox="0 0 223 435" fill="none" xmlns="http://www.w3.org/2000/svg">
<g filter="url(#filter0_d)">
<rect width="191" height="403" transform="translate(16 16)" fill="white"/>
</g>
<path fill-rule="evenodd" clip-rule="evenodd" d="M110.72 328.739C88.146 328.739 70.703 325.348 62.315 323.327C56.579 321.945 51.973 320.515 48.474 319.046L59.661 338.159L64.037 397.878C64.037 404.573 85.305 410 111.54 410C137.775 410 159.043 404.573 159.043 397.878L162.508 337.509L173.093 318.99C169.579 320.479 164.932 321.928 159.124 323.327C150.736 325.348 133.293 328.739 110.72 328.739ZM173.456 134.411C156.888 136.725 134.899 138 111.54 138C88.181 138 66.192 136.725 49.624 134.411C41.417 133.265 34.924 131.913 30.325 130.395C29.228 130.032 27.369 129.413 25.58 128.427L35.845 222.9C36.322 221.273 36.853 219.648 37.442 218.029C38.647 214.711 40.041 211.467 41.623 208.298C43.206 205.13 44.929 202.135 46.792 199.314C48.654 196.494 50.637 193.897 52.738 191.524C54.84 189.152 56.996 187.112 59.21 185.402C61.423 183.694 63.657 182.358 65.912 181.396C68.168 180.434 70.402 179.952 72.615 179.952C75.164 179.952 77.63 180.649 80.012 182.043C82.393 183.436 84.619 185.693 86.693 188.812C87.169 189.509 87.471 190.214 87.596 190.927C87.723 191.641 87.785 192.313 87.785 192.943C87.785 194.436 87.428 195.615 86.714 196.477C86 197.34 85.152 197.771 84.172 197.771C83.274 197.771 82.441 197.298 81.671 196.353C80.9 195.407 80.039 194.055 79.086 192.296C78.189 190.703 77.202 189.551 76.124 188.837C75.045 188.124 73.876 187.767 72.615 187.767C70.654 187.767 68.56 188.58 66.333 190.206C64.105 191.831 61.899 193.98 59.715 196.651C57.529 199.323 55.435 202.375 53.432 205.81C51.429 209.244 49.656 212.761 48.115 216.361C46.574 219.963 45.35 223.514 44.439 227.014C43.528 230.514 43.073 233.658 43.073 236.445C43.073 237.375 43.137 238.33 43.262 239.307C43.389 240.287 43.626 241.174 43.977 241.971C44.326 242.768 44.803 243.422 45.405 243.935C46.008 244.451 46.771 244.707 47.695 244.707C48.732 244.707 49.908 244.359 51.226 243.662C52.542 242.967 53.908 242.053 55.322 240.926C56.737 239.797 58.159 238.52 59.588 237.092C61.018 235.666 62.348 234.223 63.58 232.762C64.812 231.303 65.905 229.9 66.857 228.557C67.81 227.213 68.524 226.043 69.001 225.047L72.909 213.35C73.385 212.09 74.008 211.194 74.779 210.663C75.549 210.132 76.341 209.866 77.154 209.866C77.545 209.866 77.937 209.933 78.33 210.065C78.723 210.198 79.072 210.406 79.381 210.687C79.689 210.97 79.934 211.334 80.116 211.783C80.298 212.23 80.389 212.753 80.389 213.35C80.389 214.943 80.249 216.435 79.969 217.83C79.689 219.225 79.332 220.584 78.897 221.912C78.463 223.238 77.979 224.574 77.447 225.918C76.915 227.262 76.396 228.664 75.893 230.125C75.781 230.291 75.578 230.812 75.283 231.691C74.989 232.572 74.633 233.676 74.212 235.002C73.792 236.33 73.336 237.814 72.846 239.457C72.355 241.1 71.852 242.775 71.334 244.484C70.815 246.193 70.318 247.869 69.842 249.512C69.365 251.154 68.937 252.639 68.56 253.967C68.182 255.293 67.867 256.404 67.614 257.301C67.362 258.197 67.208 258.727 67.152 258.895C67.012 259.424 66.787 260.014 66.48 260.66C66.172 261.307 65.808 261.922 65.387 262.502C64.967 263.082 64.505 263.565 64 263.945C63.496 264.326 62.978 264.518 62.445 264.518C61.549 264.518 60.897 264.219 60.492 263.623C60.085 263.025 59.883 261.93 59.883 260.338V259.641C59.883 259.408 59.896 259.158 59.924 258.895C59.951 258.363 60.162 257.367 60.555 255.906C60.947 254.447 61.416 252.797 61.963 250.955C62.509 249.113 63.098 247.205 63.728 245.23C64.357 243.256 64.925 241.49 65.43 239.93C63.943 241.59 62.334 243.24 60.597 244.883C58.859 246.525 57.08 248.002 55.26 249.312C53.438 250.623 51.603 251.693 49.755 252.523C47.906 253.352 46.127 253.768 44.418 253.768C42.457 253.768 40.769 253.336 39.353 252.473C39.098 252.316 38.857 252.141 38.617 251.967L44.329 311.855C45.816 315.582 73.81 324.739 110.72 324.739C147.647 324.739 175.652 315.573 177.113 311.849L185.318 240.647C184.639 241.27 183.978 241.879 183.346 242.469C180.992 244.658 178.771 246.541 176.684 248.117C174.598 249.693 172.559 250.914 170.57 251.775C168.58 252.639 166.451 253.07 164.182 253.07C162.053 253.07 160.406 252.605 159.244 251.676C158.082 250.748 157.5 249.471 157.5 247.844V247.471C157.5 247.355 157.514 247.213 157.543 247.047C157.654 246.053 158.09 244.906 158.846 243.613C159.602 242.318 160.512 240.975 161.576 239.582C162.641 238.188 163.775 236.777 164.98 235.35C166.185 233.924 167.299 232.572 168.322 231.293C169.344 230.018 170.191 228.848 170.863 227.785C171.537 226.723 171.873 225.861 171.873 225.197C171.873 224.799 171.732 224.484 171.453 224.25C171.172 224.02 170.709 223.902 170.066 223.902C168.945 223.902 167.789 224.193 166.6 224.773C165.408 225.353 164.23 226.135 163.068 227.113C161.906 228.092 160.771 229.213 159.664 230.473C158.559 231.734 157.522 233.045 156.555 234.404C155.588 235.766 154.707 237.135 153.908 238.512C153.109 239.889 152.43 241.158 151.869 242.318C151.701 242.684 151.463 243.199 151.154 243.861C150.846 244.525 150.51 245.273 150.146 246.102C149.781 246.932 149.396 247.787 148.99 248.664C148.584 249.545 148.213 250.375 147.877 251.154C147.541 251.934 147.24 252.629 146.975 253.244C146.707 253.857 146.518 254.281 146.406 254.514C146.266 254.812 146.035 255.375 145.713 256.205C145.391 257.035 145.019 258.006 144.6 259.117C144.18 260.228 143.738 261.398 143.275 262.627C142.815 263.853 142.379 265.016 141.973 266.111C141.566 267.205 141.209 268.168 140.902 268.998C140.594 269.826 140.396 270.391 140.312 270.69C140.033 271.553 139.703 272.364 139.326 273.13C138.947 273.892 138.514 274.564 138.023 275.146C137.533 275.726 136.973 276.19 136.342 276.538C135.711 276.888 135.004 277.061 134.221 277.061C133.211 277.061 132.379 276.819 131.719 276.339C131.062 275.858 130.732 274.936 130.732 273.577C130.732 272.913 130.816 272.233 130.984 271.537C131.152 270.84 131.363 270.15 131.615 269.471C131.867 268.789 132.127 268.127 132.393 267.48C132.658 266.832 132.904 266.211 133.127 265.613C134.641 262.295 136.182 258.969 137.75 255.633C139.318 252.299 140.824 248.998 142.268 245.729C142.568 245.047 142.844 244.379 143.137 243.701C143.049 243.787 142.963 243.877 142.877 243.961C141.055 245.721 139.242 247.271 137.435 248.615C135.627 249.959 133.834 251.029 132.057 251.826C130.277 252.621 128.547 253.02 126.865 253.02C125.717 253.02 124.758 252.838 123.988 252.473C123.217 252.107 122.602 251.609 122.139 250.98C121.676 250.35 121.346 249.603 121.15 248.74C121.084 248.445 121.043 248.137 121 247.83C120.508 248.213 120.012 248.586 119.512 248.94C117.775 250.166 116.066 251.154 114.385 251.9C112.705 252.647 111.191 253.02 109.848 253.02C108.502 253.02 107.41 252.572 106.568 251.676C105.728 250.781 105.309 249.254 105.309 247.098C105.309 245.57 105.533 243.795 105.98 241.772C105.252 243.066 104.342 244.377 103.25 245.703C102.156 247.031 100.91 248.242 99.51 249.338C98.107 250.432 96.539 251.32 94.803 252C93.065 252.68 91.174 253.02 89.13 253.02C88.205 253.02 87.316 252.904 86.461 252.672C85.606 252.439 84.857 252.041 84.213 251.477C83.568 250.914 83.051 250.158 82.658 249.213C82.266 248.268 82.07 247.08 82.07 245.654C82.07 245.621 82.126 245.115 82.238 244.135C82.35 243.156 82.707 241.613 83.31 239.506C83.912 237.4 84.844 234.67 86.103 231.318C87.365 227.967 89.144 223.902 91.441 219.125C92.029 217.863 92.709 216.959 93.478 216.412C94.25 215.864 95.082 215.59 95.978 215.59C96.371 215.59 96.777 215.649 97.197 215.764C97.619 215.881 98.01 216.063 98.375 216.312C98.738 216.561 99.033 216.877 99.258 217.258C99.48 217.639 99.594 218.078 99.594 218.576C99.594 218.908 99.551 219.225 99.467 219.521C99.326 220.088 99.025 220.824 98.565 221.736C98.102 222.65 97.562 223.695 96.945 224.873C96.33 226.051 95.678 227.32 94.992 228.682C94.305 230.041 93.668 231.451 93.08 232.912C92.492 234.373 91.987 235.857 91.567 237.367C91.147 238.877 90.908 240.346 90.853 241.772C90.853 242.369 90.992 242.916 91.273 243.414C91.553 243.912 92.016 244.16 92.66 244.16C94.48 244.16 96.217 243.562 97.871 242.369C99.523 241.174 101.049 239.689 102.451 237.914C103.852 236.139 105.119 234.23 106.254 232.189C107.389 230.148 108.334 228.283 109.09 226.59C109.623 225.463 110.092 224.25 110.498 222.957C110.904 221.662 111.346 220.469 111.822 219.373C112.299 218.277 112.844 217.365 113.461 216.635C114.076 215.906 114.848 215.54 115.771 215.54C116.781 215.54 117.578 215.922 118.168 216.685C118.756 217.449 119.049 218.361 119.049 219.422C119.049 220.019 118.861 220.842 118.482 221.887C118.103 222.932 117.627 224.127 117.053 225.471C116.478 226.815 115.855 228.25 115.184 229.775C114.512 231.303 113.887 232.853 113.315 234.43C112.738 236.006 112.264 237.549 111.885 239.059C111.506 240.568 111.318 241.971 111.318 243.264C111.318 244.459 111.934 245.057 113.166 245.057C114.035 245.057 115.113 244.758 116.402 244.16C117.691 243.562 119.043 242.725 120.457 241.646C120.81 241.377 121.166 241.096 121.519 240.801C121.914 239.172 122.377 237.666 122.916 236.297C123.896 233.707 124.891 231.137 125.9 228.582C126.908 226.027 127.832 223.687 128.674 221.563L141.406 189.459C141.91 188.165 142.59 187.252 143.443 186.721C144.299 186.191 145.16 185.925 146.029 185.925C146.896 185.925 147.687 186.207 148.402 186.771C149.117 187.336 149.475 188.248 149.475 189.509C149.475 190.106 149.355 190.737 149.117 191.4C148.879 192.064 148.578 192.777 148.213 193.54C147.514 195.101 146.68 197.008 145.713 199.264C144.746 201.521 143.709 203.977 142.603 206.631C141.496 209.286 140.361 212.048 139.199 214.918C138.037 217.789 136.902 220.584 135.795 223.305C134.69 226.027 133.652 228.605 132.685 231.045C131.719 233.484 130.887 235.6 130.185 237.391C129.877 238.154 129.576 239.043 129.283 240.055C128.988 241.066 128.842 241.971 128.842 242.768C128.842 243.264 128.926 243.662 129.094 243.961C129.262 244.26 129.584 244.41 130.06 244.41C130.648 244.41 131.383 244.203 132.266 243.787C133.148 243.373 134.1 242.824 135.123 242.144C136.147 241.465 137.211 240.685 138.316 239.805C139.424 238.926 140.523 238.014 141.615 237.068C142.709 236.121 143.752 235.176 144.746 234.23C145.74 233.285 146.631 232.414 147.416 231.617C147.6 231.426 147.82 231.291 148.062 231.19C148.535 229.777 148.967 228.393 149.348 227.039C149.572 226.441 149.881 225.596 150.273 224.5C150.664 223.404 151.113 222.326 151.617 221.264C152.121 220.203 152.69 219.281 153.318 218.502C153.949 217.723 154.629 217.332 155.357 217.332C156.478 217.332 157.291 217.59 157.795 218.103C158.299 218.619 158.551 219.373 158.551 220.369C158.551 220.568 158.523 220.883 158.467 221.314C158.41 221.746 158.342 222.203 158.258 222.684C158.174 223.164 158.082 223.621 157.984 224.053C157.885 224.484 157.795 224.799 157.711 224.998C158.746 223.869 159.867 222.75 161.072 221.639C162.277 220.527 163.523 219.521 164.812 218.627C166.102 217.73 167.418 217.002 168.764 216.435C170.107 215.873 171.453 215.59 172.797 215.59C173.721 215.59 174.639 215.723 175.549 215.989C176.459 216.254 177.273 216.644 177.986 217.158C178.701 217.674 179.283 218.32 179.73 219.1C180.178 219.879 180.402 220.783 180.402 221.812C180.402 223.174 180.06 224.625 179.373 226.168C178.687 227.711 177.826 229.262 176.789 230.82C175.752 232.381 174.631 233.898 173.428 235.375C172.223 236.852 171.096 238.195 170.045 239.406C168.994 240.619 168.111 241.646 167.396 242.492C166.684 243.34 166.31 243.912 166.283 244.211C166.283 244.609 166.41 244.932 166.662 245.182C166.914 245.43 167.334 245.555 167.922 245.555C168.398 245.555 169.1 245.289 170.023 244.758C170.947 244.227 172.244 243.307 173.91 241.996C175.576 240.685 177.693 238.926 180.256 236.719C182.014 235.207 184.072 233.404 186.391 231.353L197.505 128.424C195.715 129.412 193.853 130.032 192.755 130.395C188.157 131.913 181.664 133.265 173.456 134.411ZM111.474 109.99C63.4255 109.99 24.474 115.362 24.474 121.99C24.474 128.618 63.4255 133.99 111.474 133.99C159.523 133.99 198.474 128.618 198.474 121.99C198.474 115.362 159.523 109.99 111.474 109.99ZM146.212 125.497C146.212 127.052 141.583 128.313 135.872 128.313C130.162 128.313 125.533 127.052 125.533 125.497C125.533 123.941 130.162 122.68 135.872 122.68C141.583 122.68 146.212 123.941 146.212 125.497Z" fill="#DA4648"/>
<path fill-rule="evenodd" clip-rule="evenodd" d="M127.627 124.252C127.575 124.334 127.549 124.417 127.549 124.502C127.549 125.509 131.276 126.324 135.872 126.324C140.469 126.324 144.195 125.509 144.195 124.502L155.066 80.4239L198.299 34.7792C198.313 34.7652 198.327 34.7508 198.34 34.7359C199.255 33.7009 197.398 30.4979 194.317 27.7509C191.236 25.0039 187.909 24.0739 186.875 25.1199C186.867 25.1278 186.86 25.1357 186.852 25.1437L140.725 73.6819L127.627 124.252Z" fill="#DA4648"/>
<defs>
<filter id="filter0_d" x="0" y="0" width="223" height="435" filterUnits="userSpaceOnUse" color-interpolation-filters="sRGB">
<feFlood flood-opacity="0" result="BackgroundImageFix"/>
<feColorMatrix in="SourceAlpha" type="matrix" values="0 0 0 0 0 0 0 0 0 0 0 0 0 0 0 0 0 0 127 0"/>
<feOffset/>
<feGaussianBlur stdDeviation="8"/>
<feColorMatrix type="matrix" values="0 0 0 0 0 0 0 0 0 0 0 0 0 0 0 0 0 0 0.25 0"/>
<feBlend mode="normal" in2="BackgroundImageFix" result="effect1_dropShadow"/>
<feBlend mode="normal" in="SourceGraphic" in2="effect1_dropShadow" result="shape"/>
</filter>
</defs>
</svg>
