<svg width="255" height="172" viewBox="0 0 255 172" fill="none" xmlns="http://www.w3.org/2000/svg">
<g filter="url(#filter0_d)">
<rect width="223" height="140" transform="translate(16 16)" fill="white"/>
</g>
<path d="M72.7393 56.3452H111.698V59.4268H76.3105V82.6202H109.588V85.7018H76.3105V111.166H112.104V114.248H72.7393V56.3452ZM115.188 56.3452H119.328L137.671 81.8092L156.42 56.3452L181.922 24L140.025 84.4854L161.614 114.248H157.313L137.671 87.1616L117.948 114.248H113.727L135.479 84.4854L115.188 56.3452ZM163.157 59.4268V56.3452H207.554V59.4268H187.1V114.248H183.529V59.4268H163.157Z" fill="black"/>
<path d="M24 56.3452H28.464L90.0207 148.016L64.5823 114.248L27.7336 60.7244L27.5712 114.248H24V56.3452Z" fill="black"/>
<path d="M207.194 110.236C207.932 110.236 208.471 109.673 208.471 108.946C208.471 108.219 207.932 107.657 207.194 107.657C206.464 107.657 205.917 108.219 205.917 108.946C205.917 109.673 206.464 110.236 207.194 110.236ZM210.703 106.843C210.703 108.99 212.258 110.392 214.525 110.392C216.939 110.392 218.399 108.946 218.399 106.436V97.5988H216.453V106.428C216.453 107.821 215.749 108.565 214.507 108.565C213.396 108.565 212.64 107.873 212.614 106.843H210.703ZM220.944 106.731C221.083 108.964 222.95 110.392 225.73 110.392C228.7 110.392 230.559 108.894 230.559 106.505C230.559 104.627 229.5 103.589 226.928 102.991L225.547 102.654C223.914 102.273 223.254 101.762 223.254 100.871C223.254 99.7454 224.279 99.0097 225.817 99.0097C227.276 99.0097 228.283 99.7281 228.466 100.879H230.359C230.247 98.776 228.388 97.2959 225.843 97.2959C223.107 97.2959 221.282 98.776 221.282 101C221.282 102.835 222.316 103.926 224.583 104.454L226.199 104.844C227.858 105.233 228.587 105.804 228.587 106.756C228.587 107.864 227.441 108.669 225.877 108.669C224.201 108.669 223.037 107.916 222.872 106.731H220.944Z" fill="black"/>
<defs>
<filter id="filter0_d" x="0" y="0" width="255" height="172" filterUnits="userSpaceOnUse" color-interpolation-filters="sRGB">
<feFlood flood-opacity="0" result="BackgroundImageFix"/>
<feColorMatrix in="SourceAlpha" type="matrix" values="0 0 0 0 0 0 0 0 0 0 0 0 0 0 0 0 0 0 127 0"/>
<feOffset/>
<feGaussianBlur stdDeviation="8"/>
<feColorMatrix type="matrix" values="0 0 0 0 0 0 0 0 0 0 0 0 0 0 0 0 0 0 0.25 0"/>
<feBlend mode="normal" in2="BackgroundImageFix" result="effect1_dropShadow"/>
<feBlend mode="normal" in="SourceGraphic" in2="effect1_dropShadow" result="shape"/>
</filter>
</defs>
</svg>
