<svg width="596" height="459" viewBox="0 0 596 459" fill="none" xmlns="http://www.w3.org/2000/svg">
<g filter="url(#filter0_d)">
<rect width="564" height="427" transform="translate(16 16)" fill="white"/>
</g>
<path d="M495.426 261.026C476.326 261.126 459.726 265.726 445.826 272.526C440.726 262.426 435.626 253.426 434.726 246.826C433.726 239.126 432.526 234.426 433.726 225.226C434.926 216.026 440.326 202.926 440.226 201.926C440.126 200.926 439.026 196.226 428.026 196.126C417.026 196.026 407.526 198.226 406.426 201.126C405.326 204.026 403.226 210.626 401.826 217.426C399.926 227.426 379.826 263.126 368.326 281.826C364.626 274.526 361.426 268.126 360.726 263.026C359.726 255.326 358.526 250.626 359.726 241.426C360.926 232.226 366.326 219.126 366.226 218.126C366.126 217.126 365.026 212.426 354.026 212.326C343.026 212.226 333.526 214.426 332.426 217.326C331.326 220.226 330.126 227.026 327.826 233.626C325.526 240.226 298.826 299.826 291.826 315.226C288.226 323.126 285.126 329.426 282.926 333.726C282.926 333.726 282.826 334.026 282.526 334.526C280.626 338.226 279.526 340.226 279.526 340.226C279.526 340.226 279.526 340.226 279.526 340.326C278.026 343.026 276.426 345.526 275.626 345.526C275.026 345.526 273.926 338.326 275.826 328.526C279.826 307.826 289.326 275.626 289.226 274.526C289.226 273.926 291.026 268.326 283.026 265.426C275.226 262.526 272.426 267.326 271.726 267.326C271.026 267.326 270.526 269.026 270.526 269.026C270.526 269.026 279.226 232.826 253.926 232.826C238.126 232.826 216.326 250.126 205.526 265.726C198.726 269.426 184.226 277.326 168.726 285.826C162.826 289.126 156.726 292.426 151.026 295.526C150.626 295.126 150.226 294.626 149.826 294.226C119.226 261.526 62.6262 238.426 65.0262 194.526C65.9262 178.526 71.4262 136.526 173.726 85.5264C257.926 44.0264 324.926 55.5264 336.526 81.0264C353.126 117.426 300.626 185.026 213.626 194.826C180.426 198.526 163.026 185.726 158.626 180.926C154.026 175.926 153.326 175.626 151.626 176.626C148.826 178.126 150.626 182.626 151.626 185.226C154.226 192.026 164.926 204.026 183.026 209.926C199.026 215.126 237.926 218.026 285.026 199.826C337.726 179.426 378.926 122.726 366.826 75.2264C354.726 27.0264 274.726 11.1264 199.026 38.0264C154.026 54.0264 105.226 79.2264 70.1262 112.026C28.4262 151.026 21.8262 184.926 24.5262 199.126C34.2262 249.526 103.726 282.326 131.526 306.626C130.126 307.426 128.826 308.126 127.726 308.726C113.826 315.626 60.8262 343.326 47.6262 372.626C32.6262 405.826 50.0262 429.626 61.5262 432.826C97.2262 442.726 133.926 424.926 153.626 395.526C173.326 366.126 170.926 327.926 161.826 310.426C161.726 310.226 161.626 310.026 161.426 309.826C165.026 307.726 168.726 305.526 172.326 303.426C179.426 299.226 186.426 295.326 192.426 292.126C189.026 301.426 186.526 312.526 185.326 328.526C183.826 347.326 191.526 371.726 201.626 381.326C206.126 385.526 211.426 385.626 214.826 385.626C226.626 385.626 231.926 375.826 237.826 364.226C245.026 350.026 251.526 333.526 251.526 333.526C251.526 333.526 243.426 378.126 265.426 378.126C273.426 378.126 281.526 367.726 285.126 362.426C285.126 362.526 285.126 362.526 285.126 362.526C285.126 362.526 285.326 362.226 285.726 361.526C286.526 360.226 287.026 359.426 287.026 359.426C287.026 359.426 287.026 359.326 287.026 359.226C290.226 353.626 297.426 340.926 308.126 319.826C321.926 292.626 335.226 258.626 335.226 258.626C335.226 258.626 336.426 266.926 340.526 280.726C342.926 288.826 347.926 297.726 351.926 306.326C348.726 310.826 346.726 313.326 346.726 313.326C346.726 313.326 346.726 313.326 346.826 313.426C344.226 316.826 341.426 320.526 338.326 324.126C327.426 337.126 314.426 352.026 312.626 356.326C310.526 361.426 311.026 365.126 315.026 368.126C317.926 370.326 323.126 370.626 328.426 370.326C338.226 369.626 345.126 367.226 348.526 365.726C353.826 363.826 360.026 360.926 365.826 356.626C376.526 348.726 383.026 337.426 382.426 322.526C382.126 314.326 379.426 306.126 376.126 298.426C377.126 297.026 378.026 295.626 379.026 294.226C395.926 269.526 409.026 242.426 409.026 242.426C409.026 242.426 410.226 250.726 414.326 264.526C416.326 271.526 420.426 279.126 424.026 286.526C408.126 299.426 398.326 314.426 394.826 324.226C388.526 342.426 393.426 350.626 402.726 352.526C406.926 353.426 412.926 351.426 417.326 349.526C422.926 347.726 429.526 344.626 435.826 340.026C446.526 332.126 456.826 321.126 456.226 306.226C455.926 299.426 454.126 292.726 451.626 286.226C465.126 280.626 482.526 277.526 504.726 280.126C552.326 285.726 561.726 315.426 559.926 327.926C558.126 340.426 548.126 347.226 544.826 349.326C541.526 351.426 540.426 352.126 540.726 353.626C541.126 355.826 542.726 355.726 545.526 355.326C549.426 354.626 570.526 345.226 571.426 322.226C572.926 292.826 544.926 260.726 495.426 261.026ZM128.226 384.826C112.426 402.026 90.4262 408.526 80.9262 403.026C70.7262 397.126 74.7262 371.726 94.1262 353.526C105.926 342.426 121.126 332.126 131.226 325.826C133.526 324.426 136.926 322.426 141.026 319.926C141.726 319.526 142.126 319.326 142.126 319.326C142.926 318.826 143.726 318.326 144.526 317.826C151.626 343.826 144.826 366.726 128.226 384.826ZM243.226 306.626C237.726 320.026 226.226 354.326 219.226 352.426C213.226 350.826 209.526 324.826 218.026 299.126C222.326 286.226 231.426 270.826 236.726 264.826C245.326 255.226 254.826 252.026 257.126 255.926C260.026 261.026 246.626 298.226 243.226 306.626ZM338.126 352.026C335.826 353.226 333.626 354.026 332.626 353.426C331.926 353.026 333.626 351.426 333.626 351.426C333.626 351.426 345.526 338.626 350.226 332.826C352.926 329.426 356.126 325.426 359.526 320.926C359.526 321.326 359.526 321.826 359.526 322.226C359.526 337.526 344.726 347.826 338.126 352.026ZM411.326 335.326C409.626 334.126 409.926 330.126 415.626 317.626C417.826 312.726 423.026 304.526 431.926 296.626C432.926 299.826 433.626 302.926 433.526 305.826C433.426 325.126 419.626 332.326 411.326 335.326Z" fill="#CD6799"/>
<defs>
<filter id="filter0_d" x="0" y="0" width="596" height="459" filterUnits="userSpaceOnUse" color-interpolation-filters="sRGB">
<feFlood flood-opacity="0" result="BackgroundImageFix"/>
<feColorMatrix in="SourceAlpha" type="matrix" values="0 0 0 0 0 0 0 0 0 0 0 0 0 0 0 0 0 0 127 0"/>
<feOffset/>
<feGaussianBlur stdDeviation="8"/>
<feColorMatrix type="matrix" values="0 0 0 0 0 0 0 0 0 0 0 0 0 0 0 0 0 0 0.25 0"/>
<feBlend mode="normal" in2="BackgroundImageFix" result="effect1_dropShadow"/>
<feBlend mode="normal" in="SourceGraphic" in2="effect1_dropShadow" result="shape"/>
</filter>
</defs>
</svg>
