<svg width="560" height="560" viewBox="0 0 560 560" fill="none" xmlns="http://www.w3.org/2000/svg">
<g filter="url(#filter0_d)">
<rect width="528" height="528" transform="translate(16 16)" fill="white"/>
<path d="M486 24H74C46.3858 24 24 46.3858 24 74V486C24 513.614 46.3858 536 74 536H486C513.614 536 536 513.614 536 486V74C536 46.3858 513.614 24 486 24Z" fill="#3178C6"/>
<path fill-rule="evenodd" clip-rule="evenodd" d="M341 431V481C349.1 485.2 359 488.3 370 490.4C381 492.5 393 493.5 405 493.5C417 493.5 428 492.4 439 490.1C450 487.8 459 484 467 479.1C475.1 473.8 482 467.1 486 458.1C490 449.1 493.1 439.1 493.1 426.1C493.1 417 491.7 409.1 489 402.1C486.3 395.1 482.4 389.1 477 384.1C471.9 378.8 466 374.1 459 370.1C452 366.1 444 361.9 435 358.1C428.4 355.4 423 352.8 417 350.2C411.8 347.6 407.3 345 404 342.4C400.3 339.7 397.5 336.9 395.5 334C393.5 331 392.5 327.7 392.5 324C392.5 320.6 393.39 317.5 395.2 314.7C397.01 311.9 399.5 309.6 402.7 307.6C405.9 305.6 409.9 304.1 414.7 303C419.4 301.9 424.6 301.4 430.7 301.4C434.9 301.4 439.3 301.71 443.7 302.34C448.3 302.97 453 303.94 457.7 305.24C462.4 306.54 467 308.14 471.7 310.14C476.1 312.14 480.2 314.44 483.7 317.04V270.04C476.1 267.14 467.7 264.94 458.7 263.54C449.7 262.14 439.7 261.44 427.7 261.44C415.7 261.44 404.7 262.74 393.7 265.24C382.7 267.74 373.7 271.74 365.7 277.24C357.6 282.64 351.7 289.24 346.7 298.24C342 306.64 339.7 316.24 339.7 328.24C339.7 343.24 344 356.24 352.7 366.24C361.3 377.24 374.7 385.24 391.7 393.24C398.6 396.04 404.7 398.84 410.7 401.54C416.7 404.24 421.7 407.04 425.7 409.94C430 412.84 433.4 416.04 435.7 419.44C438.2 422.84 439.5 426.84 439.5 431.44C439.5 434.64 438.72 437.64 437.2 440.44C435.68 443.24 433.3 445.64 430.1 447.64C426.9 449.64 423 451.24 418.1 452.44C413.4 453.54 408.1 454.14 401.1 454.14C390.1 454.14 379.1 452.24 369.1 448.44C358.1 444.64 348.1 438.94 339.1 431.44L341 431ZM257 308H321V267H142V308H206V491H257V308Z" fill="white"/>
</g>
<defs>
<filter id="filter0_d" x="0" y="0" width="560" height="560" filterUnits="userSpaceOnUse" color-interpolation-filters="sRGB">
<feFlood flood-opacity="0" result="BackgroundImageFix"/>
<feColorMatrix in="SourceAlpha" type="matrix" values="0 0 0 0 0 0 0 0 0 0 0 0 0 0 0 0 0 0 127 0"/>
<feOffset/>
<feGaussianBlur stdDeviation="8"/>
<feColorMatrix type="matrix" values="0 0 0 0 0 0 0 0 0 0 0 0 0 0 0 0 0 0 0.25 0"/>
<feBlend mode="normal" in2="BackgroundImageFix" result="effect1_dropShadow"/>
<feBlend mode="normal" in="SourceGraphic" in2="effect1_dropShadow" result="shape"/>
</filter>
</defs>
</svg>
