<svg width="158" height="75" viewBox="0 0 158 75" fill="none" xmlns="http://www.w3.org/2000/svg">
<g filter="url(#filter0_d)">
<rect width="126" height="43" transform="translate(16 16)" fill="white"/>
<path d="M37.556 26.926H31.916V44.392H29.616V26.926H24V24.853H37.556V26.926ZM46.454 30.441L40.036 46.624C38.893 49.511 37.286 50.957 35.211 50.957C34.631 50.957 34.145 50.899 33.754 50.779V48.775C34.234 48.938 34.676 49.019 35.074 49.019C36.202 49.019 37.047 48.349 37.608 47.004L38.724 44.361L33.274 30.441H35.754L39.529 41.176C39.576 41.312 39.669 41.668 39.816 42.238H39.896L40.166 41.203L44.13 30.441H46.454ZM50.108 42.377H50.054V50.81H47.818V30.44H50.054V32.893H50.108C51.208 31.041 52.813 30.113 54.933 30.113C56.731 30.113 58.133 30.737 59.143 31.985C60.153 33.233 60.653 34.907 60.653 37.007C60.653 39.34 60.087 41.212 58.953 42.615C57.819 44.018 56.263 44.719 54.295 44.719C52.495 44.715 51.09 43.936 50.11 42.374L50.108 42.377ZM50.054 36.749V38.699C50.054 39.854 50.43 40.829 51.178 41.637C51.926 42.445 52.878 42.842 54.034 42.842C55.386 42.842 56.448 42.322 57.216 41.288C57.984 40.254 58.366 38.812 58.366 36.971C58.366 35.417 58.006 34.201 57.289 33.321C56.572 32.441 55.589 32.001 54.375 32.001C53.077 32.001 52.03 32.454 51.24 33.357C50.45 34.26 50.054 35.386 50.054 36.749ZM74.209 37.974H64.359C64.394 39.528 64.812 40.724 65.611 41.57C66.41 42.416 67.511 42.837 68.909 42.837C70.479 42.837 71.924 42.317 73.242 41.283V43.38C72.017 44.27 70.394 44.717 68.378 44.717C66.405 44.717 64.858 44.085 63.731 42.817C62.604 41.549 62.031 39.767 62.031 37.469C62.031 35.299 62.647 33.529 63.876 32.164C65.105 30.799 66.636 30.114 68.461 30.114C70.286 30.114 71.697 30.704 72.697 31.884C73.697 33.064 74.197 34.704 74.197 36.802V37.972L74.209 37.974ZM71.909 36.079C71.901 34.779 71.587 33.785 70.975 33.069C70.363 32.353 69.51 31.992 68.421 31.992C67.367 31.992 66.471 32.368 65.735 33.124C64.999 33.88 64.535 34.864 64.371 36.081L71.909 36.079ZM76.153 43.601V40.904C76.436 41.174 76.773 41.424 77.168 41.64C77.563 41.856 77.968 42.043 78.416 42.19C78.864 42.337 79.292 42.457 79.73 42.54C80.168 42.623 80.58 42.664 80.95 42.664C82.237 42.664 83.202 42.404 83.837 41.881C84.472 41.358 84.79 40.606 84.79 39.626C84.79 39.099 84.685 38.642 84.472 38.25C84.2469 37.8423 83.9486 37.4796 83.592 37.18C83.216 36.858 82.774 36.548 82.262 36.254L80.612 35.32L78.868 34.27C78.3533 33.9385 77.8808 33.5456 77.461 33.1C77.061 32.674 76.748 32.19 76.519 31.65C76.29 31.11 76.179 30.476 76.179 29.75C76.179 28.86 76.357 28.087 76.714 27.43C77.071 26.773 77.539 26.23 78.124 25.802C78.709 25.374 79.368 25.058 80.112 24.849C80.8523 24.6403 81.6178 24.5346 82.387 24.535C84.15 24.535 85.433 24.768 86.239 25.229V27.802C85.185 27.004 83.839 26.605 82.174 26.605C81.717 26.605 81.259 26.659 80.802 26.76C80.345 26.861 79.938 27.035 79.582 27.272C79.226 27.509 78.935 27.812 78.71 28.187C78.485 28.562 78.373 29.012 78.373 29.551C78.373 30.051 78.458 30.481 78.629 30.845C78.8 31.209 79.051 31.539 79.385 31.841C79.719 32.143 80.121 32.431 80.602 32.713L82.252 33.639L84.072 34.729C84.646 35.109 85.149 35.531 85.58 35.996C86.011 36.461 86.355 36.973 86.607 37.536C86.859 38.099 86.987 38.746 86.987 39.47C86.987 40.43 86.813 41.25 86.472 41.915C86.1443 42.5617 85.6658 43.1201 85.077 43.543C84.492 43.963 83.817 44.263 83.05 44.45C82.283 44.637 81.48 44.73 80.632 44.73C80.349 44.73 80 44.707 79.586 44.656L78.316 44.439C77.882 44.342 77.476 44.226 77.088 44.086C76.698 43.936 76.39 43.786 76.154 43.606L76.153 43.601ZM98.883 43.751C97.81 44.394 96.538 44.721 95.07 44.721C93.082 44.721 91.474 44.074 90.253 42.779C89.032 41.484 88.42 39.807 88.42 37.745C88.42 35.447 89.08 33.602 90.396 32.207C91.712 30.812 93.469 30.114 95.67 30.114C96.895 30.114 97.976 30.344 98.914 30.796V33.096C97.879 32.366 96.771 32.006 95.589 32.006C94.163 32.006 92.993 32.518 92.082 33.541C91.171 34.564 90.714 35.905 90.714 37.567C90.714 39.202 91.144 40.493 92.001 41.435C92.858 42.377 94.011 42.853 95.454 42.853C96.671 42.853 97.814 42.45 98.888 41.64V43.76L98.883 43.751ZM107.529 32.699C107.139 32.401 106.576 32.249 105.829 32.249C104.876 32.249 104.077 32.699 103.439 33.599C102.801 34.499 102.479 35.723 102.479 37.277V44.387H100.243V30.437H102.479V33.313H102.533C102.851 32.333 103.335 31.565 103.99 31.019C104.645 30.473 105.373 30.194 106.183 30.194C106.763 30.194 107.21 30.256 107.52 30.394L107.529 32.699ZM110.094 26.899C109.694 26.899 109.354 26.763 109.071 26.492C108.788 26.221 108.649 25.876 108.649 25.457C108.649 25.038 108.789 24.694 109.071 24.415C109.353 24.136 109.695 24 110.094 24C110.501 24 110.85 24.14 111.136 24.415C111.276 24.549 111.387 24.711 111.461 24.8905C111.535 25.0699 111.571 25.2629 111.566 25.457C111.566 25.857 111.423 26.197 111.136 26.48C110.849 26.755 110.5 26.9 110.094 26.9V26.899ZM111.184 44.392H108.948V30.442H111.184V44.392ZM114.788 42.377H114.734V50.81H112.498V30.44H114.734V32.893H114.788C115.888 31.041 117.493 30.113 119.613 30.113C121.411 30.113 122.813 30.737 123.823 31.985C124.833 33.233 125.333 34.907 125.333 37.007C125.333 39.34 124.767 41.212 123.633 42.615C122.499 44.018 120.933 44.719 118.975 44.719C117.175 44.715 115.77 43.936 114.79 42.374L114.788 42.377ZM114.734 36.75V38.7C114.734 39.855 115.11 40.83 115.858 41.638C116.606 42.446 117.558 42.843 118.714 42.843C120.066 42.843 121.128 42.323 121.896 41.289C122.664 40.255 123.046 38.813 123.046 36.972C123.046 35.418 122.686 34.202 121.969 33.322C121.252 32.442 120.269 32.002 119.055 32.002C117.757 32.002 116.71 32.455 115.92 33.358C115.13 34.261 114.734 35.388 114.734 36.753V36.75ZM133.7 44.257C133.173 44.547 132.48 44.691 131.615 44.691C129.175 44.691 127.949 43.327 127.949 40.603V32.349H125.549V30.442H127.949V27.036L130.185 26.316V30.443H133.7V32.35H130.185V40.21C130.185 41.144 130.345 41.814 130.662 42.214C130.979 42.614 131.507 42.814 132.242 42.814C132.804 42.814 133.292 42.659 133.699 42.349L133.7 44.257Z" fill="#007ACC"/>
</g>
<defs>
<filter id="filter0_d" x="0" y="0" width="158" height="75" filterUnits="userSpaceOnUse" color-interpolation-filters="sRGB">
<feFlood flood-opacity="0" result="BackgroundImageFix"/>
<feColorMatrix in="SourceAlpha" type="matrix" values="0 0 0 0 0 0 0 0 0 0 0 0 0 0 0 0 0 0 127 0"/>
<feOffset/>
<feGaussianBlur stdDeviation="8"/>
<feColorMatrix type="matrix" values="0 0 0 0 0 0 0 0 0 0 0 0 0 0 0 0 0 0 0.25 0"/>
<feBlend mode="normal" in2="BackgroundImageFix" result="effect1_dropShadow"/>
<feBlend mode="normal" in="SourceGraphic" in2="effect1_dropShadow" result="shape"/>
</filter>
</defs>
</svg>
